<svg xmlns="http://www.w3.org/2000/svg" width="358.927" height="39.082" viewBox="0 0 358.927 39.082">
  <g id="tkalogo" transform="translate(0.005 0.001)">
    <path id="Path_3" data-name="Path 3" d="M761.451,22.794a2.684,2.684,0,0,0,.622.252,2.212,2.212,0,0,1,.734.332,5.106,5.106,0,0,1,.82,1.228q1.126,2.045,3.254,7.151l3.79,8.486a47.5,47.5,0,0,1-2.3,4.982.615.615,0,0,1-.551.4,1.66,1.66,0,0,1-.926-.478,3.545,3.545,0,0,0-2.159-.979,2.841,2.841,0,0,0-1.272.541,2.988,2.988,0,0,0-.967,2.126,1.61,1.61,0,0,0,.432,1.059,2.857,2.857,0,0,0,1.458.9c.682.1,1.059.147,1.13.147a5.138,5.138,0,0,0,1.91-.332,2.658,2.658,0,0,0,.9-.665,11.627,11.627,0,0,0,1.827-2.727l2.368-5.5,3.434-8.3,1.484-4.023q1.066-2.657,1.418-3.461a1.8,1.8,0,0,1,.4-.415c.369-.114.8-.227,1.292-.352a3.507,3.507,0,0,0,.82-.289c0-.162.024-.285.024-.368a5.783,5.783,0,0,0-.043-.781c-.356,0-.89.064-1.6.147a23.2,23.2,0,0,1-2.422.206l-1.112-.04-1.66-.107c-.18,0-.475.017-.884.043a3.439,3.439,0,0,0-.064.532,1.978,1.978,0,0,0,.021.306l.064.289.665.166a9.073,9.073,0,0,1,1.328.219,2.944,2.944,0,0,1,.715.445,3.184,3.184,0,0,1,.123.687,2.27,2.27,0,0,1-.08.544q-.143.584-1.89,5.151-1.458,3.863-1.581,4.111l-1.152-2.4q-1.228-2.461-2.4-5.384l-1-2.045a7.816,7.816,0,0,1-.245-.834.421.421,0,0,1,.332-.292,4.55,4.55,0,0,1,.5-.093c.163-.033.382-.073.7-.114a2.887,2.887,0,0,0,.471-.083c.026-.166.064-.555.1-1.166a2,2,0,0,0-.285-.269l-2.919.186h-1.064q-1.169,0-3.038-.123c-.206,0-.392-.023-.555-.023a7.577,7.577,0,0,0-1.192.123c.057.285.114.584.186.9M727.658,37.829c.026.292.053.548.08.77l.6.02q2.282-.209,3.883-.209l2.239.02q1.827.169,2.052.169a4.133,4.133,0,0,0,.472-.023,2.689,2.689,0,0,0,.166-.767,3.641,3.641,0,0,0-.064-.5,4.728,4.728,0,0,0-1.136-.366,8.492,8.492,0,0,1-.976-.262l-.1-.312a3.433,3.433,0,0,1-.06-.541l-.023-3.125-.06-5.978a2.169,2.169,0,0,0,.123-.582v-.2l-.04-.209a3.374,3.374,0,0,1,.02-.372q.183-.627,1.418-1.428a5.218,5.218,0,0,1,2.906-.8,3.763,3.763,0,0,1,2.192.634,2.943,2.943,0,0,1,1.2,1.634,19.836,19.836,0,0,1,.227,4.019l-.06,1.126.02,4.225a8.6,8.6,0,0,1-.1,1.687,1.144,1.144,0,0,1-.262.455,1.916,1.916,0,0,1-.269.083,13,13,0,0,0-2.219.292l.04,1.25.366.064q1.973-.19,2.77-.19l2.192.043c1.04,0,2.045.069,3.016.166l.428.023h1.415a2.763,2.763,0,0,0,.083-.5,2.589,2.589,0,0,0-.166-.76l-.634-.209a3.824,3.824,0,0,1-2.013-.568q-.269-.249-.269-1.624l.02-1.853V31.06l.043-2.185-.062-2.657.043-.6a6.256,6.256,0,0,1,2.112-1.993,4.845,4.845,0,0,1,2.342-.665,3.182,3.182,0,0,1,2.5,1.259,3.985,3.985,0,0,1,.6,1.518,12.914,12.914,0,0,1,.227,2.441l.1,5.862a14.94,14.94,0,0,1-.1,2.225,1,1,0,0,1-.309.478c-1,.382-1.591.618-1.763.714l-.023.289a3.4,3.4,0,0,0,.143.831q1.826-.19,4.928-.19a19.152,19.152,0,0,1,2.106.1c.555.06.886.093,1,.093a5.342,5.342,0,0,0,.82-.107l.024-.422a4.537,4.537,0,0,1-.1-.634,2.077,2.077,0,0,0-.781-.285,6.229,6.229,0,0,1-1.378-.455,1.519,1.519,0,0,1-.246-.81V34.294c.04-1.66.063-2.841.063-3.513v-3.3a6.7,6.7,0,0,0-1.66-4.786,5.84,5.84,0,0,0-4.517-1.747,9.112,9.112,0,0,0-2.228.3,7.364,7.364,0,0,0-1.857.691,14.017,14.017,0,0,0-2.444,1.993,5.892,5.892,0,0,0-2.519-2.362,7.283,7.283,0,0,0-3.132-.708,8.25,8.25,0,0,0-2.99.5,13.135,13.135,0,0,0-3.254,2.062l-.043-.375.02-.77-.06-1.66v-.332H733.6a7.433,7.433,0,0,1-1.867,1.677,10.26,10.26,0,0,1-3.122,1.123q-.533.124-.923.227v.853a6.372,6.372,0,0,1,2.325,1,2.055,2.055,0,0,1,.425,1.448v.5l.024,2.225-.024,2.139v1.206q-.079,3.577-.114,3.786a.305.305,0,0,1-.173.269,5.257,5.257,0,0,1-1.932.439,1.242,1.242,0,0,0-.455.1,2.111,2.111,0,0,0-.1.541m-7.433-11.093c-.166,0-.445.02-.843.057-.548.043-.97.064-1.272.064l-4.683-.043a5.34,5.34,0,0,1,1.25-3.321A3.125,3.125,0,0,1,719,22.848a3.532,3.532,0,0,1,1.326,1.659,6.262,6.262,0,0,1,.455,2.242h-.555m-11.662,4.159a8.716,8.716,0,0,0,.511,2.541,8.886,8.886,0,0,0,1.192,2.354,7.6,7.6,0,0,0,1.91,1.919,7.946,7.946,0,0,0,2.484,1.145,9.874,9.874,0,0,0,2.657.292,10.124,10.124,0,0,0,4.341-.909,11.782,11.782,0,0,0,3.75-2.926q-.5-.435-1.232-.976a10.115,10.115,0,0,1-1.818,1.093,9.148,9.148,0,0,1-1.734.532,13.563,13.563,0,0,1-2.116.1l-1.189-.4a5.132,5.132,0,0,1-1.634-.96,6.062,6.062,0,0,1-1.328-1.6,7.511,7.511,0,0,1-.8-2.149,11.052,11.052,0,0,1-.266-2.325,3.733,3.733,0,0,1,.04-.5H715.1l2.218-.043c.3,0,.847.036,1.641.1q3.205.183,4.149.183l2.282.04a8.052,8.052,0,0,0-.485-2.727,6.932,6.932,0,0,0-1.136-1.957,9.763,9.763,0,0,0-1.846-1.66,6.111,6.111,0,0,0-1.993-.864,13.226,13.226,0,0,0-3.122-.3,8.2,8.2,0,0,0-2.2.4,7.93,7.93,0,0,0-2.351,1.3,10.582,10.582,0,0,0-2.458,2.657,9.428,9.428,0,0,0-.943,2.354,16.944,16.944,0,0,0-.285,3.275m-16.661,3.5a8.242,8.242,0,0,1-1.415-5.187,9.744,9.744,0,0,1,.532-3.035,6.4,6.4,0,0,1,1.152-2.079,3.3,3.3,0,0,1,1.328-.957,4.468,4.468,0,0,1,1.717-.332,3.933,3.933,0,0,1,2.69.976,4.377,4.377,0,0,1,1.356,2.79q.186,1.356.183,7.971,0,.169-.02.857a8.976,8.976,0,0,1-1.637.831,4.2,4.2,0,0,1-1.448.285,5.159,5.159,0,0,1-.741-.04,5.351,5.351,0,0,1-3.7-2.069m-6.446-4.524a11.274,11.274,0,0,0,.87,4.477,7.866,7.866,0,0,0,3.155,3.5,7.509,7.509,0,0,0,4.128,1,9.25,9.25,0,0,0,2.584-.332,10.4,10.4,0,0,0,2.508-1.166c.3-.183.555-.332.76-.442a16.552,16.552,0,0,1,.06,1.827c0,.069,0,.227-.019.482a3.832,3.832,0,0,0,.511.043,2.036,2.036,0,0,0,.8-.332,12.443,12.443,0,0,1,4.006-1,14.28,14.28,0,0,0,1.767-.309,1.764,1.764,0,0,0,.143-.568,1.645,1.645,0,0,0-.1-.455,4.191,4.191,0,0,0-.8-.1,4.969,4.969,0,0,1-1.807-.332c-.026-.694-.04-1.292-.04-1.79V32.831c0-.193,0-.409-.02-.644-.026-.584-.043-1.235-.043-1.957s.017-1.266.043-1.66l.02-.439V26.982a8.686,8.686,0,0,1-.064-.9,4.963,4.963,0,0,1,.021-.5v-.77c0-.152-.02-.332-.02-.522,0-1.192.017-2.069.043-2.624l.029-1.272-.064-2.166.024-1.04-.024-.6V15.468q-.06-2.52-.06-3.106V12l.02-.309a2.663,2.663,0,0,0-.123-.648,2.106,2.106,0,0,0-.332-.04,5.133,5.133,0,0,0-.76.147l-2,.468-.7.147a14.108,14.108,0,0,1-2.4.425,3.589,3.589,0,0,0-1,.136v1a3.321,3.321,0,0,0,1.25.273,1.2,1.2,0,0,1,1.076.6,11.286,11.286,0,0,1,.535,4.457l-.083,2.228v1.415l-.04.5a7,7,0,0,0-4.278-1.577h-1.149a12.7,12.7,0,0,0-2.657.478,7.673,7.673,0,0,0-1.94,1.023,8.87,8.87,0,0,0-3.819,7.184m-9.405,1.876a13.4,13.4,0,0,1-.186,3.009,4.041,4.041,0,0,1-1.272,1.425,2.955,2.955,0,0,1-1.953.665,1.631,1.631,0,0,1-1.232-.581,2.1,2.1,0,0,1-.532-1.477,3.216,3.216,0,0,1,.411-1.687,6.238,6.238,0,0,1,2.045-1.864,12.576,12.576,0,0,1,2.637-1.328q.085.917.083,1.833m6.284,3.149-.617,1a.608.608,0,0,1-.382.126.7.7,0,0,1-.594-.332,2.172,2.172,0,0,1-.227-1.2v-.655l-.043-2.52.043-3.437a13.779,13.779,0,0,0-.465-4.351,3.352,3.352,0,0,0-1.627-1.818,6.057,6.057,0,0,0-2.826-.611,13.883,13.883,0,0,0-4.318.582,10.516,10.516,0,0,0-2.783,1.591,8.9,8.9,0,0,0-2.228,2.325,4.05,4.05,0,0,0-.492,2.045.893.893,0,0,0,.289.71,4.424,4.424,0,0,0,1.748-.556c.19-.1.558-.256,1.1-.468a2.634,2.634,0,0,0,1.119-.72,3.115,3.115,0,0,0,.269-1.059,5.138,5.138,0,0,1,.492-1.731,2.8,2.8,0,0,1,1.25-1.023,4.5,4.5,0,0,1,1.89-.4,1.591,1.591,0,0,1,1.439.624,7.661,7.661,0,0,1,.665,3.833c0,.541-.021,1.073-.064,1.6l-5.1,2.112q-1.328.584-1.561.708a9.451,9.451,0,0,0-2.145,1.531,4.727,4.727,0,0,0-.966,1.4,3.578,3.578,0,0,0-.3,1.4,3.056,3.056,0,0,0,1,2.386,4.576,4.576,0,0,0,3.145.909,8.75,8.75,0,0,0,3.923-.8,5.72,5.72,0,0,0,2.484-2.386,5.845,5.845,0,0,0,1.591,2.386,3.321,3.321,0,0,0,2.086.665,2.919,2.919,0,0,0,1.993-.7,5.085,5.085,0,0,0,1.3-2.551l-.024-.1a.568.568,0,0,0-.227-.356l-.472-.312Zm-21.615-.682a7.446,7.446,0,0,1-.85.9,6.84,6.84,0,0,1-1.382.814,6.441,6.441,0,0,1-1.993.269,5.578,5.578,0,0,1-4.218-2.052,7.917,7.917,0,0,1-1.86-5.527,6.548,6.548,0,0,1,1.521-4.57,4.565,4.565,0,0,1,3.451-1.677,2.3,2.3,0,0,1,1.375.415,3.118,3.118,0,0,1,.943,1.4,4.131,4.131,0,0,0,1.183,1.9,2.431,2.431,0,0,0,1.551.561,1.953,1.953,0,0,0,1.548-.634,2.508,2.508,0,0,0,.568-1.737,3.056,3.056,0,0,0-1.4-2.252q-1.4-1.126-4.949-1.123a11.581,11.581,0,0,0-4.65.9,9.631,9.631,0,0,0-3.418,2.415,9.269,9.269,0,0,0-1.943,3.238,9.734,9.734,0,0,0-.575,3.068,10.079,10.079,0,0,0,.455,2.734,7.308,7.308,0,0,0,1.385,2.707,8.435,8.435,0,0,0,3.205,2.325,10.136,10.136,0,0,0,4.066.874,9.09,9.09,0,0,0,5.4-1.522,6.477,6.477,0,0,0,2.69-3.6,2.248,2.248,0,0,0-.76-.522,4.13,4.13,0,0,1-.491-.252c-.152.169-.435.5-.853,1m-24.527-2.454a13.4,13.4,0,0,1-.186,3.009,4.038,4.038,0,0,1-1.272,1.425,2.955,2.955,0,0,1-1.953.665,1.627,1.627,0,0,1-1.232-.581,2.1,2.1,0,0,1-.532-1.477,3.249,3.249,0,0,1,.408-1.687,6.273,6.273,0,0,1,2.045-1.9,12.665,12.665,0,0,1,2.633-1.34c.053.611.083,1.223.083,1.833m6.267,3.149-.618,1a.608.608,0,0,1-.382.126.711.711,0,0,1-.6-.332,2.179,2.179,0,0,1-.227-1.2v-.655l-.043-2.52.043-3.437a13.77,13.77,0,0,0-.465-4.351,3.36,3.36,0,0,0-1.624-1.818,6.078,6.078,0,0,0-2.826-.611,13.883,13.883,0,0,0-4.318.581,10.467,10.467,0,0,0-2.783,1.591,8.845,8.845,0,0,0-2.228,2.325,4.048,4.048,0,0,0-.492,2.045.909.909,0,0,0,.285.71,4.394,4.394,0,0,0,1.767-.541q.289-.15,1.1-.468a2.634,2.634,0,0,0,1.119-.72,3.144,3.144,0,0,0,.266-1.059,5.2,5.2,0,0,1,.471-1.714,2.8,2.8,0,0,1,1.25-1.023,4.491,4.491,0,0,1,1.89-.4,1.584,1.584,0,0,1,1.435.624,7.423,7.423,0,0,1,.665,3.833c0,.541-.021,1.073-.064,1.6l-5.086,2.09c-.893.389-1.411.624-1.561.708a9.373,9.373,0,0,0-2.145,1.531,4.6,4.6,0,0,0-.967,1.4,3.574,3.574,0,0,0-.3,1.4,3.056,3.056,0,0,0,1,2.386,4.577,4.577,0,0,0,3.145.909,8.75,8.75,0,0,0,3.922-.8,5.739,5.739,0,0,0,2.484-2.386,5.843,5.843,0,0,0,1.591,2.386,3.321,3.321,0,0,0,2.083.665,2.922,2.922,0,0,0,1.993-.7,5.138,5.138,0,0,0,1.3-2.556l-.021-.1a.584.584,0,0,0-.227-.356l-.472-.312Z" transform="translate(-422.468 -10.737)" fill="#fff"/>
    <path id="Path_4" data-name="Path 4" d="M257.8,23.948a4.631,4.631,0,0,1,3.819-1.81,4.2,4.2,0,0,1,1.993.455,2.841,2.841,0,0,1,1.262,1.269,3.322,3.322,0,0,1,.411,1.468,1.109,1.109,0,0,1-.368.708,2.58,2.58,0,0,1-1,.166q-5.194.332-6.244.332h-.967a4.246,4.246,0,0,1,1.109-2.584m10.35,3.039a5.709,5.709,0,0,0-.81-2.707,6.249,6.249,0,0,0-2.454-2.415,6.128,6.128,0,0,0-3.121-.708,7.925,7.925,0,0,0-3.1.568,9.555,9.555,0,0,0-2.159,1.392,5.978,5.978,0,0,0-1.458,1.818A12.385,12.385,0,0,0,253.844,28a10.736,10.736,0,0,0-.332,2.354,9.469,9.469,0,0,0,1.2,4.922,7.032,7.032,0,0,0,3.3,2.954,7.272,7.272,0,0,0,2.853.608,9.8,9.8,0,0,0,2.3-.19,11.112,11.112,0,0,0,2.876-1.328,9.148,9.148,0,0,0,2.325-2.083,2.56,2.56,0,0,0,.02-.312l-.123-.834-1.477,1.227a9.511,9.511,0,0,1-1.973,1.062,7.529,7.529,0,0,1-1.87.292,6.892,6.892,0,0,1-3.653-1.033,6.151,6.151,0,0,1-2.256-2.81,8.2,8.2,0,0,1-.8-3.082l.02-1.023v-.209l-.02-.209a3.779,3.779,0,0,1,.186-.853c.665-.057,1.3-.086,1.932-.086h1.561l8.234-.064Zm-33.1,17.359a3.584,3.584,0,0,1,1.328-2.79,5.809,5.809,0,0,1,3.923-1.5q.777,0,4.228.273a9.886,9.886,0,0,1,1.87.269,4.424,4.424,0,0,1,1.487.665,3.089,3.089,0,0,1,.893,1.083,2.924,2.924,0,0,1,.332,1.328,3.863,3.863,0,0,1-.933,2.3,5.886,5.886,0,0,1-2.954,1.873,13.049,13.049,0,0,1-4.055.665,7.44,7.44,0,0,1-4.723-1.458,3.545,3.545,0,0,1-1.4-2.707m3.078-20.972a3.371,3.371,0,0,1,2.954-1.418,3.741,3.741,0,0,1,2.99,1.492,6.656,6.656,0,0,1,1.232,4.34,6.34,6.34,0,0,1-1.179,4.218,3.75,3.75,0,0,1-2.979,1.375,3.57,3.57,0,0,1-1.95-.615,4.075,4.075,0,0,1-1.522-1.873,7.8,7.8,0,0,1-.554-3.132,7.684,7.684,0,0,1,1-4.394M236.9,40.22a9.2,9.2,0,0,0-3.409,2.548,3.944,3.944,0,0,0-.82,2.033,3.1,3.1,0,0,0,.748,1.9,6.7,6.7,0,0,0,2.537,1.767,12.669,12.669,0,0,0,5.071.814,14.468,14.468,0,0,0,5.277-.9,7.886,7.886,0,0,0,3.427-2.325,4.952,4.952,0,0,0,1.136-3.125,4.856,4.856,0,0,0-.665-2.425,4.237,4.237,0,0,0-1.962-1.8,9.938,9.938,0,0,0-3.677-.682q-5.441-.166-7.393-1.228-.737-.415-.737-.853c0-.292.239-.551.748-.883a6.573,6.573,0,0,1,3.47-.96c.382,0,.615.023.7.023a7.134,7.134,0,0,0,3.285-.834,6.125,6.125,0,0,0,2.544-2.415A6.061,6.061,0,0,0,248.1,27.8a7.5,7.5,0,0,0-.883-3.268,3.034,3.034,0,0,1,.389-.043,9.711,9.711,0,0,1,1.614.366,8.3,8.3,0,0,0,1.9.366.7.7,0,0,0,.5-.166.664.664,0,0,0,.176-.5,2.915,2.915,0,0,0-.245-1.4,1.477,1.477,0,0,0-.781-.186c-.166,0-.7.057-1.591.176s-1.465.176-1.7.176a2.428,2.428,0,0,1-.737-.1c-.1-.04-.418-.236-.967-.581a9.259,9.259,0,0,0-1.95-1.043,7.772,7.772,0,0,0-2.527-.4,6.776,6.776,0,0,0-4.982,1.932,6.384,6.384,0,0,0-1.943,4.716,5.976,5.976,0,0,0,3.068,5.315c.382.236.665.418.841.541a17.469,17.469,0,0,1-2.2.853,4.47,4.47,0,0,0-1.786.917,1.235,1.235,0,0,0-.309.874,1.694,1.694,0,0,0,.411,1.106,9.964,9.964,0,0,0,1.969,1.518q1.328.561,1.581.687c-.193.114-.541.3-1.047.568m-12.171-3.409a8.721,8.721,0,0,1-2.76.415,5.783,5.783,0,0,1-4.4-1.891,7.176,7.176,0,0,1-1.77-5.082,8.053,8.053,0,0,1,1.637-5.477,5.125,5.125,0,0,1,3.985-1.853,5.51,5.51,0,0,1,3.026.864,3.9,3.9,0,0,1,1.691,1.833,18.372,18.372,0,0,1,.332,4.65q0,4.354-.083,5.746a4.933,4.933,0,0,1-1.66.8m.8-14.036a10.814,10.814,0,0,0-4.56-.834,12.4,12.4,0,0,0-2.434.478,7.068,7.068,0,0,0-1.867.883,7.614,7.614,0,0,0-1.746,1.4,8.34,8.34,0,0,0-1.561,2.717,9.986,9.986,0,0,0-.594,3.427,9.09,9.09,0,0,0,.909,3.912,6.975,6.975,0,0,0,2.587,2.99,6.151,6.151,0,0,0,3.3,1.073,15.045,15.045,0,0,0,5.9-1.375,11.136,11.136,0,0,1,1.09-.418v1.993a5.915,5.915,0,0,0,1.047-.123l2.99-.584c.455-.083.893-.173,1.328-.269a2.63,2.63,0,0,0,.017-.312v-.372c-.332-.026-.587-.043-.781-.043a2.744,2.744,0,0,1-1.807-.435c-.136-.126-.2-.665-.2-1.66l.048-4.812-.139-9.036.083-8.018c0-1.166-.03-2.218-.083-3.162l-1.047.02a22.015,22.015,0,0,1-4.805.976,2.656,2.656,0,0,0-.043.455v.227l.455.126a5.236,5.236,0,0,1,2.4,1.062,4.536,4.536,0,0,1,.409,2.434l-.02,4.6.02,2.434-.02.6c-.19-.069-.472-.2-.84-.375m-25.784,1.172a4.629,4.629,0,0,1,3.819-1.81,4.2,4.2,0,0,1,1.993.449,2.841,2.841,0,0,1,1.262,1.269,3.322,3.322,0,0,1,.411,1.468,1.109,1.109,0,0,1-.368.708,2.58,2.58,0,0,1-1,.166q-5.194.332-6.25.332h-.967a4.246,4.246,0,0,1,1.109-2.584m10.349,3.038a5.71,5.71,0,0,0-.81-2.707,6.223,6.223,0,0,0-2.454-2.415,6.128,6.128,0,0,0-3.121-.708,7.925,7.925,0,0,0-3.1.568,9.555,9.555,0,0,0-2.159,1.392,5.978,5.978,0,0,0-1.458,1.818,12.385,12.385,0,0,0-1.223,3.059,10.733,10.733,0,0,0-.332,2.354,9.468,9.468,0,0,0,1.2,4.923,7.018,7.018,0,0,0,3.3,2.954,7.272,7.272,0,0,0,2.873.6,9.8,9.8,0,0,0,2.3-.19,11.113,11.113,0,0,0,2.876-1.328,9.146,9.146,0,0,0,2.332-2.062,2.561,2.561,0,0,0,.017-.312l-.114-.834L208.8,35.329a9.425,9.425,0,0,1-1.969,1.062,7.53,7.53,0,0,1-1.87.292,6.892,6.892,0,0,1-3.653-1.033,6.18,6.18,0,0,1-2.259-2.81,8.256,8.256,0,0,1-.82-3.1l.02-1.023V28.51l-.02-.209a3.781,3.781,0,0,1,.186-.853c.665-.057,1.3-.086,1.932-.086H201.9l8.234-.064ZM186.83,13.153a2.221,2.221,0,0,1,.967.644,1.85,1.85,0,0,1,.227,1.05l-.06,2.437.02,4.955L187.92,27.2l.023,4.79q0,3.477-.083,4.228a1.053,1.053,0,0,1-.256.694,5.193,5.193,0,0,1-1.541.389,7.547,7.547,0,0,0-1.477.332.362.362,0,0,0-.136.312.369.369,0,0,0,.126.3.641.641,0,0,0,.492.126l3.451-.166,2.69.1,2.159.069a.475.475,0,0,0,.332-.093.446.446,0,0,0,.093-.332.3.3,0,0,0-.166-.292,5.268,5.268,0,0,0-1.487-.292q-1.266-.147-1.508-.518a8.68,8.68,0,0,1-.186-2.607q0-.123.06-2.062.107-3.3.1-20.4V10.609h-.97q-2.023.687-3.056,1.023c-.465.14-.886.269-1.272.4v.455c.276.14.781.362,1.522.665m-31.068,9.04a4.644,4.644,0,0,0,.02.475l.76.126a3.44,3.44,0,0,1,1.232.375,2.812,2.812,0,0,1,.575.8l3.549,7.035,3.886,8.227a3.224,3.224,0,0,0,.428.04,3.722,3.722,0,0,0,.455-.04q1.036-1.617,4.374-8.7c.306.644.637,1.422,1,2.325q1.973,5.168,2.548,6.31a1.292,1.292,0,0,0,.392.083.5.5,0,0,0,.332-.1,1.219,1.219,0,0,0,.256-.439c.09-.227.227-.511.4-.874q1.269-2.581,1.784-3.833l3.653-8.951a6.438,6.438,0,0,1,1.558-1.886,4.091,4.091,0,0,1,1.581-.468,2.136,2.136,0,0,0,.064-.5.306.306,0,0,0-.053-.206.332.332,0,0,0-.173-.1h-1.023c-.535.026-1,.04-1.418.04-.532,0-1.083,0-1.641-.03s-.877-.033-.947-.033l-1.66.02h-.306a.618.618,0,0,0-.227.409.554.554,0,0,0,.1.262,8.489,8.489,0,0,0,1.136.312,3.8,3.8,0,0,1,1.624.627,1.086,1.086,0,0,1,.349.817,5.374,5.374,0,0,1-.594,2.2c-.615,1.328-1.109,2.5-1.477,3.474a53.832,53.832,0,0,1-2.422,5.769q-.515-1.043-1.477-3.653l-2.214-5.872c-.236-.72-.378-1.152-.435-1.292a3.576,3.576,0,0,1-.245-1.145.7.7,0,0,1,.227-.435,5.955,5.955,0,0,1,2.076-.522,2.684,2.684,0,0,0,1.023-.273l.04-.665c-.15,0-.266-.023-.349-.023h-.341c-.136,0-.309.023-.511.023l-2.527-.043-.781.02H167.8l-1.169-.02a3.409,3.409,0,0,0-.781.126.817.817,0,0,0-.123.352l.02.147a4.982,4.982,0,0,0,1.289.478,4.709,4.709,0,0,1,1.259.472,3.351,3.351,0,0,1,.492,1.073c.212.611.389,1.069.525,1.375l1.259,3.341a60.949,60.949,0,0,1-3.358,6.878l-2.468-5.022q-1.786-3.686-2.484-5.315a15.026,15.026,0,0,1-.594-1.477,1.7,1.7,0,0,1-.043-.4.8.8,0,0,1,.349-.682,4.222,4.222,0,0,1,1.777-.352.634.634,0,0,0,.309-.584.352.352,0,0,0-.083-.249.425.425,0,0,0-.309-.083l-7.885-.023c0,.14-.02.245-.02.332M141.668,36.09a8.51,8.51,0,0,1-1.694-5.736,11.25,11.25,0,0,1,.976-5.2,5.352,5.352,0,0,1,2.386-2.481,6.643,6.643,0,0,1,2.77-.652,5.178,5.178,0,0,1,3.254,1.076,6.266,6.266,0,0,1,2.059,3.218,12.888,12.888,0,0,1,.665,3.767,10.389,10.389,0,0,1-.864,4.365,5.9,5.9,0,0,1-2.325,2.736,5.833,5.833,0,0,1-3,.86,5.38,5.38,0,0,1-4.228-1.947m-3.653-1.615a8.7,8.7,0,0,0,2.893,3.019,9.2,9.2,0,0,0,4.805,1.356,9.412,9.412,0,0,0,6.828-2.614,8.135,8.135,0,0,0,2.71-5.955,8.887,8.887,0,0,0-2.577-6.413,8.559,8.559,0,0,0-6.417-2.657,10.671,10.671,0,0,0-4.56.883A8.25,8.25,0,0,0,139.172,24a8.46,8.46,0,0,0-1.777,2.893,8.863,8.863,0,0,0-.584,3.029,8.6,8.6,0,0,0,1.212,4.56m-23.451,3.523.04.273h.515l1.95-.023,4.432.064h2.159l.033-.415a.777.777,0,0,0-.555-.418c-.136-.026-.422-.1-.853-.227s-.81-.219-1.136-.289a1.352,1.352,0,0,1-.665-.273.946.946,0,0,1-.143-.455q-.1-.81-.1-4.413l-.06-4.6c0-.472,0-1.043.04-1.7a9.037,9.037,0,0,1,2.548-1.843,6.241,6.241,0,0,1,2.691-.615A3.942,3.942,0,0,1,128.3,24.1a5.067,5.067,0,0,1,1.069,3.71l-.043,1.66v1.086c0,2.541.043,4.135.083,4.773.026.292.04.489.04.584a1.952,1.952,0,0,1-.245.834,2.282,2.282,0,0,1-.555.332,3.42,3.42,0,0,1-.82.126,4.852,4.852,0,0,0-1.561.332.665.665,0,0,0-.143.332l.123.439c.834.04,1.747.047,2.727.02l2.657-.064,2.71.043h.4a1.542,1.542,0,0,0,.123-.522v-.166a4.922,4.922,0,0,0-2.3-.665,1.223,1.223,0,0,1-.535-.541,8.4,8.4,0,0,1-.123-1.853c0-.615,0-1.156.033-1.627s.03-.751.03-.834V28.962a21.562,21.562,0,0,0-.359-4.932,4.165,4.165,0,0,0-1.572-2.159,4.669,4.669,0,0,0-2.9-.92,5.6,5.6,0,0,0-1.439.169,11.956,11.956,0,0,0-2.3.827,13.286,13.286,0,0,0-2.524,1.534q-.33.249-.575.418l-.02-.378V22.147c0-.28-.02-.744-.064-1.4l-.7-.02a7.47,7.47,0,0,1-1.973,2.544,6.051,6.051,0,0,1-2.3,1.086v.76a3.6,3.6,0,0,1,2.052.81,2.76,2.76,0,0,1,.332,1.66l.043,6.37c0,.428,0,.784-.023,1.059l-.04.748a1.72,1.72,0,0,1-.256,1.142,3.475,3.475,0,0,1-1.551.435,10.18,10.18,0,0,0-1.192.249,2.072,2.072,0,0,0-.06.415m-17.968.273c.368,0,.874,0,1.518-.043,1.069-.04,2.052-.064,2.954-.064.558,0,1.25,0,2.073.023a.831.831,0,0,0-.206-.584,2.325,2.325,0,0,0-1.09-.312,1.364,1.364,0,0,1-1.066-.5,7.656,7.656,0,0,1-.411-3.194q0-2.676.083-3.424h.781a2.249,2.249,0,0,1,1.223.282,14.588,14.588,0,0,1,1.957,1.993q2.386,2.684,2.99,3.477a2.446,2.446,0,0,1,.594,1.145.665.665,0,0,1-.349.227,18.194,18.194,0,0,1-2.351.269.611.611,0,0,0-.227.227v.147a.88.88,0,0,0,.06.292,1.239,1.239,0,0,0,.432.083,4.482,4.482,0,0,0,.455-.04l5.709-.169h.356q.634,0,2.092.126l.02-.209a1.392,1.392,0,0,0-.08-.4l-.926-.186a4.806,4.806,0,0,1-1.7-.584c-.176-.14-.8-.81-1.87-2.019-.285-.332-.544-.637-.781-.917q-1.066-1.292-3.285-3.653c-.422-.455-.717-.784-.883-1a2.345,2.345,0,0,0-.332-.375,2.028,2.028,0,0,1-.269-.352l.741-.665q.737-.627,1.743-1.544A16.35,16.35,0,0,1,109.8,23.96a6.011,6.011,0,0,1,1.932-.568l.967-.19a.943.943,0,0,0,.1-.372v-.273c-1.023-.04-1.993-.064-2.9-.064q-2.4,0-5.646.126a1.328,1.328,0,0,0-.1.415l.04.209a5.618,5.618,0,0,1,.618.147c.18.043.332.076.492.1a4.318,4.318,0,0,1,1.375.455,1.069,1.069,0,0,1,.269.584q0,.375-.82,1.219a39.389,39.389,0,0,1-4.028,3.175,2.434,2.434,0,0,1-1.418.518l-.227-.02c0-.332-.02-.618-.02-.814V27.035l.06-5.121-.026-4.135.02-2.475-.064-1.66.02-.893v-1.79c0-.069,0-.262.02-.581H99.83c-1.285.72-2.086,1.152-2.4,1.289a11.7,11.7,0,0,1-2.073.624c0,.156-.023.273-.023.356V12.9a5.292,5.292,0,0,1,2.252.6,2.234,2.234,0,0,1,.341,1.466l-.033,3.152.083,3.62a12.648,12.648,0,0,1-.043,1.352q-.04,1.206-.04,1.4l.04,1.454-.04,8.217a8.877,8.877,0,0,1-.227,2.841c-.15.227-.525.366-1.119.406a10.254,10.254,0,0,0-1.036.1.784.784,0,0,0-.309.152l.04.6c.631,0,1.083.023,1.364.023" transform="translate(-68.016 -10.21)" fill="#fff"/>
    <path id="Path_5" data-name="Path 5" d="M35.491,48.259a9.063,9.063,0,0,1,1.793-2.534,1.477,1.477,0,0,1,.864-.432.691.691,0,0,1,.525.266.973.973,0,0,1,.236.665,3.377,3.377,0,0,1-.227,1.2,4.2,4.2,0,0,1-.665,1.119,3.684,3.684,0,0,1-.757.76,7.244,7.244,0,0,1-1.352.77,4.022,4.022,0,0,1-1.382.332,11.674,11.674,0,0,1,.96-2.145m1,2.358a8.932,8.932,0,0,0,1.036-.359l1.145-.757a3.3,3.3,0,0,0,.847-1.1,3.235,3.235,0,0,0,.4-1.522,2.106,2.106,0,0,0-.511-1.444,1.551,1.551,0,0,0-1.185-.575,2.451,2.451,0,0,0-1.016.216,3.945,3.945,0,0,0-.973.637q-.123.114-1.159,1.232L34,48.513a15.7,15.7,0,0,0-.924,1.847,8.968,8.968,0,0,0-.462,1.562,7.954,7.954,0,0,0-.2,1.611,3.926,3.926,0,0,0,.665,2.434,1.515,1.515,0,0,0,1.242.665,3.116,3.116,0,0,0,2.112-.936,6.6,6.6,0,0,0,2.045-3.068A3.2,3.2,0,0,0,38.1,52.6h-.193a5.491,5.491,0,0,1-.665,1.328,6.664,6.664,0,0,1-.767.947,3.683,3.683,0,0,1-.877.624,1.093,1.093,0,0,1-.539.126.929.929,0,0,1-.787-.389,2.421,2.421,0,0,1-.442-1.522,7.569,7.569,0,0,1,.455-2.567q1.328-.269,2.169-.528M25.86,38.4a.584.584,0,0,1,.332.136.389.389,0,0,1,.083.262,3.258,3.258,0,0,1-.227.847l-.555,1.624L21.656,52.578c-.047.123-.1.245-.15.366l-.967,2.5a2.358,2.358,0,0,0-.216.77.418.418,0,0,0,.126.332.665.665,0,0,0,.422.09.7.7,0,0,0,.428-.114,1.328,1.328,0,0,0,.332-.548q.332-.857,1.282-2.954a21.329,21.329,0,0,1,1.352-2.684,38.643,38.643,0,0,1,2.766-3.573,6.241,6.241,0,0,1,1.624-1.3,1.016,1.016,0,0,1,.445-.114.682.682,0,0,1,.568.262,1.764,1.764,0,0,1,.209,1.023,14.09,14.09,0,0,1-.9,4.049,18.659,18.659,0,0,1-2.012,4.574c-.3.4-.541.6-.714.6a.627.627,0,0,1-.4-.212,2.657,2.657,0,0,0-.511-.634.731.731,0,0,0-.439-.114.883.883,0,0,0-.581.186.538.538,0,0,0-.219.4,1.328,1.328,0,0,0,.422.883,1.083,1.083,0,0,0,.814.292,3.068,3.068,0,0,0,1.385-.392,6.429,6.429,0,0,0,1.84-1.75,12.415,12.415,0,0,0,1.86-3.523,11.363,11.363,0,0,0,.787-3.773,2.829,2.829,0,0,0-.508-1.85,1.534,1.534,0,0,0-1.2-.615,2.912,2.912,0,0,0-1.777.7,18.654,18.654,0,0,0-3.3,3.863c-.236.341-.425.594-.568.781q.6-1.943,1.282-3.607a39.231,39.231,0,0,0,1.306-3.736c.227-.748.4-1.3.528-1.66l.8-2.325.368-.94.066-.266h-.435c-.332,0-1.269.086-2.833.266l-.057.292a5.046,5.046,0,0,0,.969.3m-9.233,9.3L14.6,52.653l-.581,1.328a7.006,7.006,0,0,0-.665,1.89.544.544,0,0,0,.159.425.72.72,0,0,0,.5.15,1.66,1.66,0,0,0,.641-.14,8.658,8.658,0,0,0,1.023-.665,10.529,10.529,0,0,0,1.4-1.119A28.559,28.559,0,0,0,19,52.3a1.946,1.946,0,0,0-.406-.292,16.426,16.426,0,0,1-2.265,2.448,1.565,1.565,0,0,1-.924.478l-.178-.023a.332.332,0,0,1-.083-.193q.909-2.218,1.285-2.99l2.249-5.463a2.988,2.988,0,0,1,.8-.143h.558c.591,0,1.069-.02,1.432-.057a1.534,1.534,0,0,0,.166-.753l-1.328.026h-.751a4.679,4.679,0,0,1-.465-.069,5.773,5.773,0,0,1,.227-.665,22.478,22.478,0,0,0,1.216-3.119v-.227a3.019,3.019,0,0,0-.634-.066,4.951,4.951,0,0,0-.7.04,6.736,6.736,0,0,0-.3.741c-.289.834-.568,1.551-.84,2.159-.123.269-.28.631-.455,1.076q-.378.044-2.386.1a1.993,1.993,0,0,0-.256.71h.18l.9-.03H17.27q-.245.734-.634,1.7" transform="translate(-13.356 -28.483)" fill="#fff"/>
  </g>
</svg>
